<svg width="158" height="56" viewBox="0 0 158 56" fill="none" xmlns="http://www.w3.org/2000/svg">
<path d="M14.6382 22.3513H17.3529L17.5901 18.2789H21.2554V22.3513H25.1579V25.3378H21.2554V36.6073C21.2554 37.1526 21.5608 37.2862 21.8661 37.2862H25.1579V40.5098H20.5765C18.5407 40.5098 17.3529 39.2211 17.3529 36.5737V25.3332H14.6382V22.3513ZM35.7458 21.9097C40.768 21.9097 43.9926 25.7104 43.9926 30.9071V33.0792H30.52C30.8254 35.6585 33.2347 37.4571 36.2548 37.4571C38.5269 37.4571 40.1573 36.2692 41.3442 35.0477L43.6527 37.3471C41.6851 39.8246 38.9022 41.0124 35.983 41.0124C31.2326 41.0124 26.6848 37.5843 26.6848 31.5778C26.6848 26.1821 30.6891 21.906 35.7458 21.906V21.9097ZM40.1918 30.0174C40.1237 27.4726 38.5623 25.4732 35.6104 25.4732C33.0657 25.4732 30.8254 27.3054 30.5209 30.0174H40.1918ZM46.7073 15.5605H50.6098V36.6C50.6098 37.0754 50.6434 37.2789 51.2205 37.2789H53.6635V40.5026H49.8973C47.4198 40.5026 46.7073 38.9085 46.7073 36.6346V15.5605ZM63.9124 21.906C68.9346 21.906 72.1591 25.7068 72.1591 30.9035V33.0756H58.6866C58.992 35.6548 61.4013 37.4534 64.4213 37.4534C66.6934 37.4534 68.3239 36.2656 69.5108 35.0441L71.8192 37.3471C69.8516 39.8246 67.0688 41.0124 64.1496 41.0124C59.3991 41.0124 54.8513 37.5843 54.8513 31.5778C54.8513 26.1821 58.8556 21.906 63.9124 21.906ZM68.3584 30.0174C68.2902 27.4726 66.7289 25.4732 63.777 25.4732C61.2322 25.4732 58.992 27.3054 58.6875 30.0174H68.3584ZM84.1039 21.8379C88.5154 21.8379 90.9929 24.4844 92.1471 27.5044L88.8889 28.8949C87.871 26.5874 86.2424 25.3996 84.0721 25.3996C81.0175 25.3996 78.88 27.8089 78.88 31.4406C78.88 35.0378 81.0857 37.4807 84.0721 37.4807C86.2779 37.4807 87.9065 36.3901 89.3324 34.3907L92.0471 36.2238C90.3204 39.142 88.0428 41.0088 83.8349 41.0088C78.6428 41.0088 74.9774 36.9699 74.9774 31.5406C74.9774 26.0767 78.6764 21.8351 84.1057 21.8351L84.1039 21.8379ZM94.0829 31.1334H97.85V31.506C97.85 34.8687 100.633 37.208 103.619 37.208C106.571 37.208 109.117 34.936 109.117 31.6078V31.167H112.951C112.951 31.3706 112.985 31.7441 112.985 32.0159C112.985 37.3089 108.472 41.0088 103.483 41.0088C98.5289 41.0088 94.0493 37.208 94.0493 31.8459C94.0452 31.6079 94.0564 31.3699 94.0829 31.1334ZM103.518 21.8351C108.099 21.8351 111.593 24.787 112.714 28.9949H108.811C107.963 26.891 105.994 25.5677 103.518 25.5677C101.041 25.5677 99.106 26.9591 98.2236 28.9949H94.3547C94.8727 26.9549 96.0537 25.1447 97.7122 23.8488C99.3707 22.5528 101.413 21.8445 103.518 21.8351ZM115.869 22.3441H119.433L119.467 25.7713H119.637C120.723 23.3274 122.623 21.8351 125.406 21.8351C128.154 21.8351 130.055 23.3956 130.835 26.2466H131.039C132.091 23.4292 134.059 21.8351 137.08 21.8351C141.22 21.8351 143.222 25.0242 143.222 29.0967V40.5017H139.319V29.5748C139.319 27.1318 138.437 25.2651 135.892 25.2651C132.974 25.2651 131.446 27.7762 131.446 30.3545V40.5017H127.543V29.5748C127.543 26.6901 126.39 25.2651 124.15 25.2651C121.163 25.2651 119.772 27.708 119.772 30.3545V40.5017H115.869V22.3441Z" fill="#3C01A0"/>
</svg>
